<mxfile host="app.diagrams.net" modified="2020-11-20T01:46:15.313Z" agent="5.0 (Macintosh; Intel Mac OS X 11_0_1) AppleWebKit/537.36 (KHTML, like Gecko) Chrome/87.0.4280.67 Safari/537.36" etag="-jnzGq1g-lg-rf0C1EOP" version="13.10.0" type="github">
  <diagram id="JAqE6KUSAbg8KRXoZr79" name="Page-1">
    <mxGraphModel dx="2852" dy="1652" grid="1" gridSize="10" guides="1" tooltips="1" connect="1" arrows="1" fold="1" page="1" pageScale="1" pageWidth="850" pageHeight="1100" math="0" shadow="0">
      <root>
        <mxCell id="0" />
        <mxCell id="1" parent="0" />
        <mxCell id="vyhBWZs--JBDBbk8r56p-16" style="edgeStyle=orthogonalEdgeStyle;rounded=0;orthogonalLoop=1;jettySize=auto;html=1;entryX=0.5;entryY=0;entryDx=0;entryDy=0;" parent="1" source="vyhBWZs--JBDBbk8r56p-1" target="vyhBWZs--JBDBbk8r56p-3" edge="1">
          <mxGeometry relative="1" as="geometry" />
        </mxCell>
        <mxCell id="vyhBWZs--JBDBbk8r56p-1" value="start" style="rounded=1;whiteSpace=wrap;html=1;" parent="1" vertex="1">
          <mxGeometry x="400" y="50" width="70" height="30" as="geometry" />
        </mxCell>
        <mxCell id="vyhBWZs--JBDBbk8r56p-2" value="end" style="rounded=1;whiteSpace=wrap;html=1;" parent="1" vertex="1">
          <mxGeometry x="390" y="820" width="70" height="30" as="geometry" />
        </mxCell>
        <mxCell id="vyhBWZs--JBDBbk8r56p-35" style="edgeStyle=orthogonalEdgeStyle;rounded=0;orthogonalLoop=1;jettySize=auto;html=1;exitX=0.5;exitY=1;exitDx=0;exitDy=0;entryX=0.5;entryY=0;entryDx=0;entryDy=0;" parent="1" source="vyhBWZs--JBDBbk8r56p-3" target="vyhBWZs--JBDBbk8r56p-23" edge="1">
          <mxGeometry relative="1" as="geometry" />
        </mxCell>
        <mxCell id="vyhBWZs--JBDBbk8r56p-3" value="get input for the greatest_number" style="rounded=0;whiteSpace=wrap;html=1;" parent="1" vertex="1">
          <mxGeometry x="375" y="110" width="120" height="60" as="geometry" />
        </mxCell>
        <mxCell id="vyhBWZs--JBDBbk8r56p-26" style="edgeStyle=orthogonalEdgeStyle;rounded=0;orthogonalLoop=1;jettySize=auto;html=1;entryX=0.5;entryY=0;entryDx=0;entryDy=0;" parent="1" source="vyhBWZs--JBDBbk8r56p-4" target="vyhBWZs--JBDBbk8r56p-6" edge="1">
          <mxGeometry relative="1" as="geometry">
            <Array as="points">
              <mxPoint x="434" y="470" />
              <mxPoint x="434" y="470" />
            </Array>
          </mxGeometry>
        </mxCell>
        <mxCell id="vyhBWZs--JBDBbk8r56p-4" value="product = number * (number+1)" style="rounded=0;whiteSpace=wrap;html=1;" parent="1" vertex="1">
          <mxGeometry x="375" y="390" width="120" height="60" as="geometry" />
        </mxCell>
        <mxCell id="vyhBWZs--JBDBbk8r56p-18" style="edgeStyle=orthogonalEdgeStyle;rounded=0;orthogonalLoop=1;jettySize=auto;html=1;entryX=0.5;entryY=0;entryDx=0;entryDy=0;" parent="1" source="vyhBWZs--JBDBbk8r56p-5" target="vyhBWZs--JBDBbk8r56p-4" edge="1">
          <mxGeometry relative="1" as="geometry" />
        </mxCell>
        <mxCell id="vyhBWZs--JBDBbk8r56p-5" value="set number to 0&lt;br&gt;set counter to 0" style="rounded=0;whiteSpace=wrap;html=1;" parent="1" vertex="1">
          <mxGeometry x="375" y="310" width="120" height="60" as="geometry" />
        </mxCell>
        <mxCell id="vyhBWZs--JBDBbk8r56p-6" value="product &amp;lt;= greatest_number" style="rhombus;whiteSpace=wrap;html=1;" parent="1" vertex="1">
          <mxGeometry x="332" y="470" width="204" height="80" as="geometry" />
        </mxCell>
        <mxCell id="vyhBWZs--JBDBbk8r56p-28" style="edgeStyle=orthogonalEdgeStyle;rounded=0;orthogonalLoop=1;jettySize=auto;html=1;entryX=0;entryY=0.5;entryDx=0;entryDy=0;" parent="1" source="vyhBWZs--JBDBbk8r56p-9" target="vyhBWZs--JBDBbk8r56p-4" edge="1">
          <mxGeometry relative="1" as="geometry">
            <mxPoint x="230" y="380" as="targetPoint" />
            <Array as="points">
              <mxPoint x="220" y="730" />
              <mxPoint x="220" y="420" />
            </Array>
          </mxGeometry>
        </mxCell>
        <mxCell id="vyhBWZs--JBDBbk8r56p-9" value="number ++&lt;br&gt;counter ++" style="rounded=0;whiteSpace=wrap;html=1;" parent="1" vertex="1">
          <mxGeometry x="321" y="700" width="120" height="60" as="geometry" />
        </mxCell>
        <mxCell id="vyhBWZs--JBDBbk8r56p-24" style="edgeStyle=orthogonalEdgeStyle;rounded=0;orthogonalLoop=1;jettySize=auto;html=1;entryX=0.5;entryY=0;entryDx=0;entryDy=0;" parent="1" source="vyhBWZs--JBDBbk8r56p-23" target="vyhBWZs--JBDBbk8r56p-5" edge="1">
          <mxGeometry relative="1" as="geometry" />
        </mxCell>
        <mxCell id="vyhBWZs--JBDBbk8r56p-25" style="edgeStyle=orthogonalEdgeStyle;rounded=0;orthogonalLoop=1;jettySize=auto;html=1;entryX=1;entryY=0.5;entryDx=0;entryDy=0;" parent="1" source="vyhBWZs--JBDBbk8r56p-23" target="vyhBWZs--JBDBbk8r56p-3" edge="1">
          <mxGeometry relative="1" as="geometry">
            <Array as="points">
              <mxPoint x="515" y="220" />
              <mxPoint x="515" y="140" />
            </Array>
          </mxGeometry>
        </mxCell>
        <mxCell id="vyhBWZs--JBDBbk8r56p-23" value="is positive" style="rhombus;whiteSpace=wrap;html=1;" parent="1" vertex="1">
          <mxGeometry x="395" y="180" width="80" height="80" as="geometry" />
        </mxCell>
        <mxCell id="8XhEcHThyvLEzNSL7zrK-1" style="edgeStyle=orthogonalEdgeStyle;rounded=0;orthogonalLoop=1;jettySize=auto;html=1;entryX=0.5;entryY=0;entryDx=0;entryDy=0;" edge="1" parent="1" source="vyhBWZs--JBDBbk8r56p-27" target="vyhBWZs--JBDBbk8r56p-9">
          <mxGeometry relative="1" as="geometry" />
        </mxCell>
        <mxCell id="vyhBWZs--JBDBbk8r56p-27" value="print counter, product" style="rounded=0;whiteSpace=wrap;html=1;" parent="1" vertex="1">
          <mxGeometry x="321" y="600" width="120" height="60" as="geometry" />
        </mxCell>
        <mxCell id="vyhBWZs--JBDBbk8r56p-29" value="" style="endArrow=classic;html=1;entryX=0.5;entryY=0;entryDx=0;entryDy=0;exitX=0.5;exitY=1;exitDx=0;exitDy=0;" parent="1" source="vyhBWZs--JBDBbk8r56p-6" target="vyhBWZs--JBDBbk8r56p-27" edge="1">
          <mxGeometry width="50" height="50" relative="1" as="geometry">
            <mxPoint x="430" y="550" as="sourcePoint" />
            <mxPoint x="710" y="660" as="targetPoint" />
            <Array as="points">
              <mxPoint x="434" y="570" />
              <mxPoint x="380" y="570" />
            </Array>
          </mxGeometry>
        </mxCell>
        <mxCell id="vyhBWZs--JBDBbk8r56p-31" value="" style="endArrow=classic;html=1;exitX=0.5;exitY=1;exitDx=0;exitDy=0;" parent="1" source="vyhBWZs--JBDBbk8r56p-6" edge="1">
          <mxGeometry width="50" height="50" relative="1" as="geometry">
            <mxPoint x="430" y="550" as="sourcePoint" />
            <mxPoint x="425" y="820" as="targetPoint" />
            <Array as="points">
              <mxPoint x="434" y="570" />
              <mxPoint x="500" y="570" />
              <mxPoint x="500" y="780" />
              <mxPoint x="425" y="780" />
            </Array>
          </mxGeometry>
        </mxCell>
        <mxCell id="vyhBWZs--JBDBbk8r56p-34" value="yes" style="text;html=1;strokeColor=none;fillColor=none;align=center;verticalAlign=middle;whiteSpace=wrap;rounded=0;" parent="1" vertex="1">
          <mxGeometry x="440" y="270" width="40" height="20" as="geometry" />
        </mxCell>
        <mxCell id="8XhEcHThyvLEzNSL7zrK-2" value="yes" style="text;html=1;strokeColor=none;fillColor=none;align=center;verticalAlign=middle;whiteSpace=wrap;rounded=0;" vertex="1" parent="1">
          <mxGeometry x="375" y="550" width="40" height="20" as="geometry" />
        </mxCell>
        <mxCell id="8XhEcHThyvLEzNSL7zrK-3" value="no" style="text;html=1;strokeColor=none;fillColor=none;align=center;verticalAlign=middle;whiteSpace=wrap;rounded=0;" vertex="1" parent="1">
          <mxGeometry x="470" y="550" width="40" height="20" as="geometry" />
        </mxCell>
      </root>
    </mxGraphModel>
  </diagram>
</mxfile>
